<svg xmlns="http://www.w3.org/2000/svg" viewBox="0 0 283.46 283.46"><circle cx="141.73" cy="141.73" r="141.73" fill="#fff"/><g data-name="Color #2"><path fill="#878787" d="M175.18 232.36s-33.04-3.19-60.83-3.19H59.54v-9.96c2.37-.17 5.86-.43 10.47-.77q6.915-.51 9.54-1.53c3.25-1.28 5.46-2.96 6.65-5.04s1.78-4.74 1.78-7.98V100.15c0-2.89-.57-5.45-1.71-7.66s-3.38-4-6.71-5.36c-2.11-.85-5.22-1.72-9.35-2.62S62.53 83 59.55 82.66V72.7s25.94-1.17 31.24 0c6.58 1.46 11.13 4.01 13.51 15.94.3-.18-3.49 7.59-5.16 12.13 4.94-7.72 8.98-15.9 31.18-22.73 10.26-3.16 33.79-5.33 33.79-5.33v6.77c-2.66.26-16.47 3.5-19.82 5.31-3.17 1.72-6 3.77-7.15 6.11s-1.73 5-1.73 7.98c0 0 .1 42.98 0 46.38-.23 7.46 2.23 6.34 2.23 6.34l.62 5.11s-3.21.37-2.84 19.03c.05 2.79 0 26.76 0 26.76 0 3.06.55 5.71 1.79 7.85 8.08 13.91 15.34 6.24 39.51 16.99l-1.53 5.03Z"/><path fill="#f29cb6" d="M129.75 35.79s-8.32-11.76-21.1-4.57c-17 9.57-6.68 35.19-2.44 52.97 16.68-12.03 40.53-10.68 51.08-29.81 9.78-17.74-12.09-31.31-27.54-18.59"/><path fill="#9dd3c7" d="M139.41 154.31c12.62-8.51 9.66-20.56 21.3-30.67 12.93-11.23 23.7-13.44 56.21-10.96-18.02 7.84-15.62 15.19-29.82 27.89-17.15 15.34-32.52 15.73-46.96 13.91 10.46-4.36 29.8-39.82 73.98-41.23-48.97 0-63.11 37.27-74.2 41.18-.33-.08-.51-.13-.51-.13ZM166.04 76.32c7.48-4.98 5.11-14.63 14.38-21.65 10.82-8.19 30.17-6.14 46.71-5.97-11.63 3.33-17.99 7.19-28.35 18.07-12.95 13.6-25.53 11.96-32.45 9.79 10.29-1.82 16.44-28.05 58.78-27.7-45.86-1.77-49.04 26.39-58.91 27.53-.11.01-.16-.08-.16-.08Z"/></g></svg>